<svg width="100" height="96" viewBox="0 0 100 96" fill="none" xmlns="http://www.w3.org/2000/svg">
<path d="M52.7789 0.777933L88.8695 21.6147C89.7515 22.1248 90.4838 22.8577 90.9932 23.7401C91.5026 24.6224 91.7712 25.6232 91.7719 26.642V68.3162C91.7712 69.3351 91.5026 70.3358 90.9932 71.2182C90.4838 72.1005 89.7515 72.8335 88.8695 73.3436L52.7789 94.1811C51.8962 94.6901 50.8951 94.958 49.8762 94.958C48.8572 94.958 47.8562 94.6901 46.9734 94.1811L10.8828 73.3436C10.0009 72.8335 9.2685 72.1005 8.75911 71.2182C8.24972 70.3358 7.9812 69.3351 7.98047 68.3162V26.642C7.9812 25.6232 8.24972 24.6224 8.75911 23.7401C9.2685 22.8577 10.0009 22.1248 10.8828 21.6147L46.9734 0.777933C47.856 0.268924 48.8569 0.000976562 49.8758 0.000976562C50.8946 0.000976563 51.8955 0.268924 52.7781 0.777933H52.7789Z" fill="#363636"/>
<path d="M55.3008 20.3516L39.0234 49.6484H48.7891L44.4492 74.6062L60.7266 45.3086H49.875L55.3008 20.3516V20.3516Z" fill="white" stroke="white" stroke-width="0.865902" stroke-miterlimit="10"/>
</svg>
