<svg viewBox="0 0 128 122" xmlns="http://www.w3.org/2000/svg" fill-rule="evenodd" clip-rule="evenodd" stroke-miterlimit="10"><path d="M67.557.996l46.196 26.671a7.44 7.44 0 0 1 3.715 6.435v53.343a7.44 7.44 0 0 1-3.715 6.435l-46.196 26.672a7.438 7.438 0 0 1-7.431 0L13.93 93.88a7.44 7.44 0 0 1-3.715-6.435V34.102a7.44 7.44 0 0 1 3.715-6.435L60.126.996a7.436 7.436 0 0 1 7.43 0h.001z" fill="rgb(54,54,54)" fill-rule="nonzero"/><path d="M70.785 26.05L49.95 63.55h12.5l-5.555 31.946L77.73 57.995H63.84l6.945-31.945z" fill="white" fill-rule="nonzero" stroke="white" stroke-width="1.39px"/></svg>