<?xml version="1.0" encoding="UTF-8"?>
<svg
  overflow="visible"
  viewBox="0 0 300 37.13786315917969"
  xmlns="http://www.w3.org/2000/svg"
>
  <g transform="scale(.8325)">
    <g
      class="text"
      transform="translate(177.78 44.13) scale(1)"
      fill="#fff"
      light-content="false"
    >
      <path
        d="m-144.72-43.71h-32.1l-0.96 7.74h11.16l-4.38 35.97h9.72l4.44-35.97h11.1zm34.74 7.53l0.96-7.53h-26.04l-5.4 43.71h26.1l0.96-7.53h-16.29l1.32-10.83h12.33l0.96-7.26h-12.39l1.32-10.56zm33.54 1.23l2.94-4.02c-0.58-0.74-1.29-1.42-2.13-2.05s-1.77-1.18-2.79-1.64-2.11-0.82-3.28-1.08-2.38-0.39-3.62-0.39c-2.42 0-4.6 0.41-6.54 1.23s-3.59 1.92-4.95 3.3-2.41 2.97-3.13 4.76c-0.73 1.78-1.1 3.65-1.1 5.59 0 1.68 0.23 3.1 0.68 4.25 0.45 1.14 1.04 2.12 1.77 2.91 0.72 0.78 1.56 1.43 2.5 1.92 0.94 0.48 1.9 0.91 2.88 1.27s1.94 0.7 2.88 1.01c0.94 0.3 1.78 0.66 2.51 1.06 0.72 0.4 1.31 0.89 1.77 1.47 0.45 0.58 0.67 1.32 0.67 2.22 0 1.94-0.49 3.41-1.48 4.4s-2.4 1.48-4.22 1.48c-1.24 0-2.28-0.19-3.13-0.58s-1.6-0.83-2.24-1.29c-0.64-0.47-1.22-0.9-1.75-1.29s-1.08-0.59-1.64-0.59c-0.42 0-0.84 0.11-1.26 0.33s-0.76 0.5-1.02 0.84l-3.48 4.56c0.7 0.86 1.55 1.64 2.55 2.34s2.08 1.3 3.26 1.82c1.17 0.51 2.39 0.9 3.66 1.18s2.53 0.42 3.79 0.42c2.54 0 4.82-0.43 6.86-1.27 2.03-0.85 3.75-2 5.17-3.45s2.51-3.15 3.27-5.09 1.14-4.01 1.14-6.21c0-1.54-0.22-2.86-0.67-3.96-0.46-1.1-1.05-2.04-1.8-2.82s-1.6-1.43-2.55-1.95c-0.96-0.52-1.92-0.98-2.91-1.38s-1.96-0.77-2.9-1.11-1.78-0.71-2.53-1.12c-0.75-0.42-1.35-0.89-1.8-1.43s-0.68-1.21-0.68-2.01c0-0.74 0.12-1.42 0.35-2.04 0.22-0.62 0.57-1.16 1.03-1.62s1.04-0.82 1.73-1.08 1.49-0.39 2.41-0.39c1 0 1.87 0.15 2.61 0.45s1.4 0.63 1.96 0.99c0.58 0.36 1.09 0.69 1.55 0.99s0.92 0.45 1.38 0.45c0.48 0 0.89-0.11 1.24-0.33 0.36-0.22 0.7-0.57 1.04-1.05zm19.8 27.15l4.44-35.91h-9.78l-5.4 43.71h24.48l0.96-7.8zm61.26 7.8l-10.14-43.71h-10.02l-20.88 43.71h7.68c0.78 0 1.49-0.22 2.13-0.64 0.64-0.43 1.07-0.93 1.29-1.49l3.24-7.86h14.85l1.35 7.86c0.1 0.64 0.41 1.16 0.92 1.55s1.18 0.58 2.02 0.58zm-23.97-16.65l5.13-12.42c0.1-0.24 0.26-0.61 0.5-1.11 0.23-0.5 0.47-1.04 0.72-1.62 0.24-0.58 0.5-1.17 0.76-1.78 0.26-0.62 0.47-1.16 0.63-1.64 0.14 0.88 0.32 1.86 0.53 2.93 0.21 1.06 0.4 2.12 0.58 3.16l2.13 12.48zm56.01-2.55l-7.68-23.01c-0.12-0.38-0.27-0.67-0.45-0.87s-0.4-0.34-0.64-0.43c-0.25-0.09-0.54-0.15-0.86-0.17s-0.69-0.03-1.11-0.03h-7.44l-5.4 43.71h8.64l3-25.59c0.06-0.52 0.11-1.1 0.14-1.74s0.06-1.3 0.1-1.98l7.68 22.62c0.22 0.66 0.62 1.16 1.19 1.5s1.23 0.51 1.99 0.51h1.32c0.76 0 1.46-0.16 2.1-0.49s1.16-0.84 1.56-1.52l13.14-22.56c-0.16 0.7-0.3 1.37-0.43 2.03-0.14 0.65-0.23 1.24-0.29 1.78l-3.06 25.44h8.58l5.4-43.71h-7.68c-0.56 0-1.14 0.08-1.74 0.24s-1.1 0.58-1.5 1.26l-13.38 23.01c-0.38 0.64-0.74 1.28-1.09 1.92s-0.69 1.29-1.01 1.95c-0.3-1.32-0.66-2.61-1.08-3.87zm71.7 19.2l-10.14-43.71h-10.02l-20.88 43.71h7.68c0.78 0 1.49-0.22 2.13-0.64 0.64-0.43 1.07-0.93 1.29-1.49l3.24-7.86h14.85l1.35 7.86c0.1 0.64 0.4 1.16 0.92 1.55 0.51 0.39 1.18 0.58 2.02 0.58zm-23.97-16.65l5.13-12.42c0.1-0.24 0.26-0.61 0.49-1.11 0.24-0.5 0.48-1.04 0.73-1.62 0.24-0.58 0.5-1.17 0.76-1.78 0.26-0.62 0.47-1.16 0.63-1.64 0.14 0.88 0.32 1.86 0.52 2.93 0.22 1.06 0.41 2.12 0.59 3.16l2.13 12.48zm62.49-27.06h-32.1l-0.96 7.74h11.16l-4.38 35.97h9.72l4.44-35.97h11.1zm34.74 7.53l0.96-7.53h-26.04l-5.4 43.71h26.1l0.96-7.53h-16.29l1.32-10.83h12.33l0.96-7.26h-12.39l1.32-10.56z"
      />
    </g>
  </g>
</svg>
