<?xml version="1.0" encoding="UTF-8"?>
<svg
  overflow="visible"
  viewBox="0 -1.1920928955078125e-7 127.68282318115234 147"
  xmlns="http://www.w3.org/2000/svg"
>
  <g transform="scale(.30926)">
    <g
      class="ticHtT3HX"
      transform="translate(30.23 -3.7168) scale(4.0046)"
      fill="#363636"
      light-content="false"
    >
      <path
        d="M47 1.732l37.301 21.536a6 6 0 0 1 3 5.196v43.072a6 6 0 0 1-3 5.196L47 98.268a6 6 0 0 1-6 0L3.699 76.732a6 6 0 0 1-3-5.196V28.464a6 6 0 0 1 3-5.196L41 1.732a6 6 0 0 1 6 0z"
      />
    </g>
    <g
      class="oRZAQyqDBz"
      transform="translate(-43.081 -53) scale(4.9902)"
      fill="#fff"
      light-content="true"
    >
      <path
        d="M54.5 27.5L41 51.8h8.1l-3.6 20.7L59 48.2h-9z"
        stroke="#fff"
        stroke-miterlimit="10"
        stroke-width=".902"
      />
    </g>
  </g>
</svg>
