<svg viewBox="0 0 300 37.13786316" xmlns="http://www.w3.org/2000/svg"><path d="m-144.72-43.71h-32.1l-.96 7.74h11.16l-4.38 35.97h9.72l4.44-35.97h11.1zm34.74 7.53.96-7.53h-26.04l-5.4 43.71h26.1l.96-7.53h-16.29l1.32-10.83h12.33l.96-7.26h-12.39l1.32-10.56zm33.54 1.23 2.94-4.02c-.58-.74-1.29-1.42-2.13-2.05s-1.77-1.18-2.79-1.64-2.11-.82-3.28-1.08-2.38-.39-3.62-.39c-2.42 0-4.6.41-6.54 1.23s-3.59 1.92-4.95 3.3-2.41 2.97-3.13 4.76c-.73 1.78-1.1 3.65-1.1 5.59 0 1.68.23 3.1.68 4.25.45 1.14 1.04 2.12 1.77 2.91.72.78 1.56 1.43 2.5 1.92.94.48 1.9.91 2.88 1.27s1.94.7 2.88 1.01c.94.3 1.78.66 2.51 1.06.72.4 1.31.89 1.77 1.47.45.58.67 1.32.67 2.22 0 1.94-.49 3.41-1.48 4.4s-2.4 1.48-4.22 1.48c-1.24 0-2.28-.19-3.13-.58s-1.6-.83-2.24-1.29c-.64-.47-1.22-.9-1.75-1.29s-1.08-.59-1.64-.59c-.42 0-.84.11-1.26.33s-.76.5-1.02.84l-3.48 4.56c.7.86 1.55 1.64 2.55 2.34s2.08 1.3 3.26 1.82c1.17.51 2.39.9 3.66 1.18s2.53.42 3.79.42c2.54 0 4.82-.43 6.86-1.27 2.03-.85 3.75-2 5.17-3.45s2.51-3.15 3.27-5.09 1.14-4.01 1.14-6.21c0-1.54-.22-2.86-.67-3.96-.46-1.1-1.05-2.04-1.8-2.82s-1.6-1.43-2.55-1.95c-.96-.52-1.92-.98-2.91-1.38s-1.96-.77-2.9-1.11-1.78-.71-2.53-1.12c-.75-.42-1.35-.89-1.8-1.43s-.68-1.21-.68-2.01c0-.74.12-1.42.35-2.04.22-.62.57-1.16 1.03-1.62s1.04-.82 1.73-1.08 1.49-.39 2.41-.39c1 0 1.87.15 2.61.45s1.4.63 1.96.99c.58.36 1.09.69 1.55.99s.92.45 1.38.45c.48 0 .89-.11 1.24-.33.36-.22.7-.57 1.04-1.05zm19.8 27.15 4.44-35.91h-9.78l-5.4 43.71h24.48l.96-7.8zm61.26 7.8-10.14-43.71h-10.02l-20.88 43.71h7.68c.78 0 1.49-.22 2.13-.64.64-.43 1.07-.93 1.29-1.49l3.24-7.86h14.85l1.35 7.86c.1.64.41 1.16.92 1.55s1.18.58 2.02.58zm-23.97-16.65 5.13-12.42c.1-.24.26-.61.5-1.11.23-.5.47-1.04.72-1.62.24-.58.5-1.17.76-1.78.26-.62.47-1.16.63-1.64.14.88.32 1.86.53 2.93.21 1.06.4 2.12.58 3.16l2.13 12.48zm56.01-2.55-7.68-23.01c-.12-.38-.27-.67-.45-.87s-.4-.34-.64-.43c-.25-.09-.54-.15-.86-.17s-.69-.03-1.11-.03h-7.44l-5.4 43.71h8.64l3-25.59c.06-.52.11-1.1.14-1.74s.06-1.3.1-1.98l7.68 22.62c.22.66.62 1.16 1.19 1.5s1.23.51 1.99.51h1.32c.76 0 1.46-.16 2.1-.49s1.16-.84 1.56-1.52l13.14-22.56c-.16.7-.3 1.37-.43 2.03-.14.65-.23 1.24-.29 1.78l-3.06 25.44h8.58l5.4-43.71h-7.68c-.56 0-1.14.08-1.74.24s-1.1.58-1.5 1.26l-13.38 23.01c-.38.64-.74 1.28-1.09 1.92s-.69 1.29-1.01 1.95c-.3-1.32-.66-2.61-1.08-3.87zm71.7 19.2-10.14-43.71h-10.02l-20.88 43.71h7.68c.78 0 1.49-.22 2.13-.64.64-.43 1.07-.93 1.29-1.49l3.24-7.86h14.85l1.35 7.86c.1.64.4 1.16.92 1.55.51.39 1.18.58 2.02.58zm-23.97-16.65 5.13-12.42c.1-.24.26-.61.49-1.11.24-.5.48-1.04.73-1.62.24-.58.5-1.17.76-1.78.26-.62.47-1.16.63-1.64.14.88.32 1.86.52 2.93.22 1.06.41 2.12.59 3.16l2.13 12.48zm62.49-27.06h-32.1l-.96 7.74h11.16l-4.38 35.97h9.72l4.44-35.97h11.1zm34.74 7.53.96-7.53h-26.04l-5.4 43.71h26.1l.96-7.53h-16.29l1.32-10.83h12.33l.96-7.26h-12.39l1.32-10.56z" fill="#fff" transform="matrix(.8325 0 0 .8325 148.00185 36.738225)"/></svg>