<svg overflow="visible" viewBox="0 0 127.683 147" xmlns="http://www.w3.org/2000/svg"><path d="M67.557.996l46.196 26.671a7.43 7.43 0 0 1 3.715 6.435v53.343a7.43 7.43 0 0 1-3.715 6.435l-46.196 26.672a7.43 7.43 0 0 1-7.431 0L13.93 93.88a7.43 7.43 0 0 1-3.715-6.435V34.102a7.43 7.43 0 0 1 3.715-6.435L60.126.996a7.43 7.43 0 0 1 7.43 0z" class="" fill="#363636"/><path d="M70.785 26.05L49.95 63.55h12.5l-5.555 31.946L77.73 57.995H63.84z" stroke="#fff" stroke-miterlimit="10" stroke-width="1.39202954" class="" fill="#fff"/></svg>