<svg height="1365.333" viewBox="0 0 1024 1024" width="1365.333" xmlns="http://www.w3.org/2000/svg"><path d="m504.8 7.1c-8 .9-12.2 2.1-20.3 6.2-8 4-385.7 222.1-391.5 226-7.2 5-14.7 13.5-19 21.8-7.6 14.6-7.1-5.8-6.8 252.6l.3 231.8 2.2 6.6c4.2 12.1 13 23.8 23.3 30.8 7.7 5.3 387.9 224.7 394.7 227.8 3.1 1.4 9.8 3.3 14.9 4.2 8.6 1.4 10.2 1.4 18.8 0 5.1-.9 11.8-2.8 14.9-4.2 6.8-3.1 387-222.5 394.7-227.8 10.3-7 19.1-18.7 23.3-30.8l2.2-6.6.3-231.8c.3-258.4.8-238-6.8-252.6-4.3-8.3-11.8-16.8-19-21.8-5.7-3.9-383.3-221.9-391.8-226.2-10.6-5.4-21.7-7.3-34.4-6zm47.1 326.3c-17.5 80.8-31.9 147.3-31.9 147.7 0 .5 26.4.9 58.6.9 49.1 0 58.5.2 58.2 1.4-.5 2-193.2 348.6-193.9 348.6-.3 0 10.9-65.4 24.8-145.3 13.9-79.8 25.3-145.5 25.3-146 0-.4-23.9-.7-53.1-.7-46.6 0-53-.2-52.5-1.5.6-1.6 190.4-343.7 193.8-349.3 1.1-1.8 2.2-3.2 2.3-3 .2.2-14 66.4-31.6 147.2z"/></svg>